<svg width="355" height="355" viewBox="0 0 355 355" fill="none" xmlns="http://www.w3.org/2000/svg">
<mask id="path-1-inside-1_295_11757" fill="white">
<path d="M174.865 242.681C175.744 242.681 176.457 243.394 176.457 244.272V325.996C169.159 325.97 161.986 325.415 154.974 324.368V244.272C154.974 243.394 155.686 242.681 156.564 242.681H174.865ZM204.307 242.681C205.186 242.681 205.898 243.394 205.898 244.272V323.177C198.902 324.562 191.728 325.455 184.414 325.815V244.272C184.414 243.394 185.126 242.681 186.005 242.681H204.307ZM145.425 242.681C146.304 242.681 147.017 243.394 147.017 244.272V322.96C139.522 321.418 132.236 319.308 125.202 316.68V244.272C125.202 243.394 125.914 242.681 126.793 242.681H145.425ZM232.487 242.681C233.366 242.681 234.079 243.394 234.079 244.272V314.589C227.065 317.524 219.777 319.936 212.264 321.772V244.272C212.264 243.394 212.976 242.681 213.854 242.681H232.487ZM177 30C258.738 30 325 96.2619 325 178C325 236.582 290.963 287.211 241.587 311.197L241.588 244.272C241.588 243.394 242.3 242.681 243.179 242.681H255.773C256.652 242.681 257.365 241.969 257.365 241.09V214.831C257.365 213.952 256.652 213.239 255.773 213.239H239.759C239.399 213.239 239.044 213.115 238.766 212.888C225.762 202.269 225.104 189.167 229.438 180.629C231.848 175.883 235.755 172.55 240.085 171.386C244.289 170.256 249.393 171.033 254.682 175.464C264.902 184.026 263.267 192.536 260.097 196.093C258.4 197.996 256.312 198.646 254.494 198.197C252.849 197.791 250.517 196.254 248.548 191.962C248.181 191.163 247.266 190.75 246.445 191.065L242.407 192.619C241.587 192.935 241.174 193.858 241.528 194.661C244.15 200.6 248.045 204.347 252.697 205.495C257.726 206.735 262.529 204.654 265.7 201.098C272.266 193.733 272.274 180.4 259.501 169.7C252.553 163.88 244.968 162.291 238.137 164.127C231.432 165.929 225.958 170.894 222.744 177.225C217.922 186.724 218.072 199.344 226.186 210.51C226.987 211.613 226.235 213.239 224.871 213.239H129.078C127.714 213.239 126.961 211.613 127.763 210.51C135.876 199.344 136.028 186.724 131.206 177.225C127.992 170.894 122.517 165.929 115.812 164.127C108.982 162.291 101.396 163.88 94.4482 169.7C81.6758 180.4 81.6836 193.733 88.249 201.098C91.4199 204.654 96.2238 206.735 101.252 205.495C105.905 204.347 109.799 200.6 112.421 194.661C112.776 193.857 112.363 192.935 111.543 192.619L107.504 191.065C106.683 190.75 105.768 191.163 105.401 191.962C103.432 196.254 101.101 197.791 99.4561 198.197C97.638 198.646 95.5497 197.996 93.8525 196.093C90.6824 192.536 89.0473 184.026 99.2676 175.464C104.557 171.033 109.661 170.256 113.865 171.386C118.195 172.55 122.102 175.884 124.511 180.629C128.845 189.167 128.186 202.269 115.183 212.888C114.904 213.115 114.55 213.239 114.19 213.239H102.204C101.325 213.24 100.613 213.952 100.613 214.831V241.09C100.613 241.968 101.326 242.68 102.204 242.681H116.102C116.98 242.681 117.693 243.394 117.693 244.272V313.637C65.4799 290.774 29.0001 238.648 29 178C29 96.2619 95.2619 30 177 30ZM101.309 137.104C100.43 137.105 99.7178 137.818 99.7178 138.696V160.976C99.7179 161.854 100.43 162.566 101.309 162.566H253.287C254.166 162.566 254.879 161.854 254.879 160.976V138.696C254.879 137.817 254.166 137.104 253.287 137.104H101.309ZM85.4941 107.978C84.6155 107.978 83.9033 108.691 83.9033 109.569V135.511C83.9035 136.389 84.6155 137.101 85.4941 137.102H268.154C269.033 137.102 269.746 136.39 269.746 135.511V109.569C269.746 108.69 269.033 107.978 268.154 107.978H85.4941Z"/>
</mask>
<path d="M176.457 325.996L176.453 326.996L177.457 327V325.996H176.457ZM154.974 324.368H153.974V325.23L154.826 325.357L154.974 324.368ZM156.564 242.681V241.681H156.564L156.564 242.681ZM205.898 323.177L206.093 324.158L206.898 323.998V323.177H205.898ZM184.414 325.815H183.414V326.866L184.463 326.814L184.414 325.815ZM186.005 242.681V241.681H186.005L186.005 242.681ZM147.017 322.96L146.815 323.939L148.017 324.187V322.96H147.017ZM125.202 316.68H124.202V317.374L124.852 317.616L125.202 316.68ZM126.793 242.681V241.681H126.793L126.793 242.681ZM234.079 314.589L234.465 315.511L235.079 315.254V314.589H234.079ZM212.264 321.772H211.264V323.046L212.501 322.744L212.264 321.772ZM213.854 242.681V241.681H213.854L213.854 242.681ZM325 178H326H325ZM241.587 311.197H240.587L240.587 312.795L242.024 312.097L241.587 311.197ZM241.588 244.272L242.588 244.272L241.588 244.272ZM243.179 242.681V241.681H243.178L243.179 242.681ZM257.365 241.09L258.365 241.09V241.09H257.365ZM239.759 213.239L239.759 214.239H239.759V213.239ZM238.766 212.888L238.133 213.662L238.766 212.888ZM229.438 180.629L228.547 180.176V180.176L229.438 180.629ZM240.085 171.386L239.825 170.42H239.825L240.085 171.386ZM254.682 175.464L255.324 174.697V174.697L254.682 175.464ZM260.097 196.093L260.843 196.758L260.843 196.758L260.097 196.093ZM254.494 198.197L254.255 199.168L254.255 199.168L254.494 198.197ZM248.548 191.962L249.457 191.545L249.457 191.545L248.548 191.962ZM246.445 191.065L246.086 190.132L246.086 190.132L246.445 191.065ZM242.407 192.619L242.766 193.552L242.766 193.552L242.407 192.619ZM241.528 194.661L240.613 195.065L240.613 195.065L241.528 194.661ZM252.697 205.495L252.458 206.466H252.458L252.697 205.495ZM265.7 201.098L266.447 201.763L266.447 201.763L265.7 201.098ZM259.501 169.7L260.143 168.934L260.143 168.934L259.501 169.7ZM238.137 164.127L237.877 163.161L237.877 163.161L238.137 164.127ZM222.744 177.225L221.852 176.772L221.852 176.772L222.744 177.225ZM226.186 210.51L225.377 211.098L226.186 210.51ZM127.763 210.51L126.954 209.922L126.954 209.922L127.763 210.51ZM131.206 177.225L132.098 176.772L132.098 176.772L131.206 177.225ZM115.812 164.127L116.072 163.161H116.072L115.812 164.127ZM94.4482 169.7L93.8061 168.934L93.8061 168.934L94.4482 169.7ZM88.249 201.098L87.5026 201.763L87.5026 201.763L88.249 201.098ZM101.252 205.495L101.491 206.466L101.491 206.466L101.252 205.495ZM112.421 194.661L113.336 195.065L112.421 194.661ZM111.543 192.619L111.902 191.686L111.902 191.686L111.543 192.619ZM107.504 191.065L107.863 190.132H107.863L107.504 191.065ZM105.401 191.962L104.493 191.545L104.492 191.545L105.401 191.962ZM99.4561 198.197L99.6955 199.168L99.6956 199.168L99.4561 198.197ZM93.8525 196.093L93.1061 196.758L93.1061 196.758L93.8525 196.093ZM99.2676 175.464L98.6254 174.697L98.6254 174.697L99.2676 175.464ZM113.865 171.386L114.125 170.42L114.125 170.42L113.865 171.386ZM124.511 180.629L125.402 180.176L125.402 180.176L124.511 180.629ZM115.183 212.888L115.815 213.662L115.815 213.662L115.183 212.888ZM114.19 213.239V214.239H114.191L114.19 213.239ZM102.204 213.239V212.239H102.204L102.204 213.239ZM100.613 241.09H99.6133V241.09L100.613 241.09ZM102.204 242.681L102.204 243.681H102.204V242.681ZM117.693 313.637L117.292 314.553L118.693 315.166V313.637H117.693ZM29 178H28H29ZM101.309 137.104V136.104H101.308L101.309 137.104ZM99.7178 160.976H98.7178V160.976L99.7178 160.976ZM101.309 162.566L101.308 163.566H101.309V162.566ZM254.879 160.976L255.879 160.976V160.976H254.879ZM85.4941 107.978V106.978H85.4938L85.4941 107.978ZM83.9033 135.511H82.9033V135.511L83.9033 135.511ZM85.4941 137.102L85.4938 138.102H85.4941V137.102ZM269.746 135.511L270.746 135.511V135.511H269.746ZM174.865 242.681V243.681C175.192 243.681 175.457 243.946 175.457 244.272H176.457H177.457C177.457 242.841 176.296 241.681 174.865 241.681V242.681ZM176.457 244.272H175.457V325.996H176.457H177.457V244.272H176.457ZM176.457 325.996L176.461 324.996C169.211 324.97 162.086 324.418 155.121 323.379L154.974 324.368L154.826 325.357C161.886 326.411 169.107 326.97 176.453 326.996L176.457 325.996ZM154.974 324.368H155.974V244.272H154.974H153.974V324.368H154.974ZM154.974 244.272H155.974C155.974 243.945 156.239 243.681 156.565 243.681L156.564 242.681L156.564 241.681C155.133 241.681 153.974 242.842 153.974 244.272H154.974ZM156.564 242.681V243.681H174.865V242.681V241.681H156.564V242.681ZM204.307 242.681V243.681C204.633 243.681 204.898 243.946 204.898 244.272H205.898H206.898C206.898 242.841 205.738 241.681 204.307 241.681V242.681ZM205.898 244.272H204.898V323.177H205.898H206.898V244.272H205.898ZM205.898 323.177L205.704 322.196C198.755 323.571 191.63 324.458 184.365 324.817L184.414 325.815L184.463 326.814C191.826 326.451 199.048 325.552 206.093 324.158L205.898 323.177ZM184.414 325.815H185.414V244.272H184.414H183.414V325.815H184.414ZM184.414 244.272H185.414C185.414 243.945 185.679 243.681 186.005 243.681L186.005 242.681L186.005 241.681C184.573 241.681 183.414 242.842 183.414 244.272H184.414ZM186.005 242.681V243.681H204.307V242.681V241.681H186.005V242.681ZM145.425 242.681V243.681C145.751 243.681 146.017 243.946 146.017 244.272H147.017H148.017C148.017 242.841 146.856 241.681 145.425 241.681V242.681ZM147.017 244.272H146.017V322.96H147.017H148.017V244.272H147.017ZM147.017 322.96L147.218 321.98C139.775 320.449 132.538 318.353 125.552 315.743L125.202 316.68L124.852 317.616C131.934 320.263 139.27 322.387 146.815 323.939L147.017 322.96ZM125.202 316.68H126.202V244.272H125.202H124.202V316.68H125.202ZM125.202 244.272H126.202C126.202 243.945 126.467 243.681 126.793 243.681L126.793 242.681L126.793 241.681C125.361 241.681 124.202 242.842 124.202 244.272H125.202ZM126.793 242.681V243.681H145.425V242.681V241.681H126.793V242.681ZM232.487 242.681V243.681C232.814 243.681 233.079 243.946 233.079 244.272H234.079H235.079C235.079 242.841 233.918 241.681 232.487 241.681V242.681ZM234.079 244.272H233.079V314.589H234.079H235.079V244.272H234.079ZM234.079 314.589L233.693 313.666C226.726 316.581 219.488 318.977 212.026 320.801L212.264 321.772L212.501 322.744C220.066 320.895 227.403 318.466 234.465 315.511L234.079 314.589ZM212.264 321.772H213.264V244.272H212.264H211.264V321.772H212.264ZM212.264 244.272H213.264C213.264 243.945 213.529 243.681 213.855 243.681L213.854 242.681L213.854 241.681C212.423 241.681 211.264 242.842 211.264 244.272H212.264ZM213.854 242.681V243.681H232.487V242.681V241.681H213.854V242.681ZM177 30V31C258.186 31 324 96.8141 324 178H325H326C326 95.7096 259.29 29 177 29V30ZM325 178H324C324 236.184 290.194 286.472 241.15 310.298L241.587 311.197L242.024 312.097C291.731 287.949 326 236.979 326 178H325ZM241.587 311.197H242.587L242.588 244.272L241.588 244.272L240.588 244.272L240.587 311.197H241.587ZM241.588 244.272L242.588 244.272C242.588 243.945 242.853 243.681 243.179 243.681L243.179 242.681L243.178 241.681C241.747 241.681 240.588 242.842 240.588 244.272L241.588 244.272ZM243.179 242.681V243.681H255.773V242.681V241.681H243.179V242.681ZM255.773 242.681V243.681C257.204 243.681 258.365 242.522 258.365 241.09L257.365 241.09L256.365 241.09C256.365 241.416 256.101 241.681 255.773 241.681V242.681ZM257.365 241.09H258.365V214.831H257.365H256.365V241.09H257.365ZM257.365 214.831H258.365C258.365 213.4 257.205 212.239 255.773 212.239V213.239V214.239C256.1 214.239 256.365 214.504 256.365 214.831H257.365ZM255.773 213.239V212.239H239.759V213.239V214.239H255.773V213.239ZM239.759 213.239L239.759 212.239C239.625 212.239 239.495 212.192 239.398 212.113L238.766 212.888L238.133 213.662C238.594 214.039 239.173 214.239 239.759 214.239L239.759 213.239ZM238.766 212.888L239.398 212.113C226.747 201.782 226.215 189.188 230.33 181.082L229.438 180.629L228.547 180.176C223.993 189.147 224.777 202.755 238.133 213.662L238.766 212.888ZM229.438 180.629L230.33 181.082C232.632 176.547 236.33 173.43 240.345 172.351L240.085 171.386L239.825 170.42C235.179 171.669 231.063 175.219 228.547 180.176L229.438 180.629ZM240.085 171.386L240.344 172.351C244.199 171.316 248.972 171.985 254.039 176.23L254.682 175.464L255.324 174.697C249.813 170.081 244.379 169.196 239.825 170.42L240.085 171.386ZM254.682 175.464L254.039 176.23C259.002 180.388 260.986 184.443 261.419 187.784C261.854 191.141 260.741 193.868 259.35 195.427L260.097 196.093L260.843 196.758C262.623 194.762 263.912 191.454 263.402 187.527C262.891 183.583 260.581 179.102 255.324 174.697L254.682 175.464ZM260.097 196.093L259.35 195.427C257.853 197.106 256.128 197.57 254.734 197.226L254.494 198.197L254.255 199.168C256.496 199.721 258.946 198.886 260.843 196.758L260.097 196.093ZM254.494 198.197L254.734 197.226C253.469 196.914 251.34 195.65 249.457 191.545L248.548 191.962L247.639 192.379C249.694 196.859 252.23 198.669 254.255 199.168L254.494 198.197ZM248.548 191.962L249.457 191.545C248.887 190.305 247.438 189.612 246.086 190.132L246.445 191.065L246.804 191.999C247.094 191.887 247.475 192.021 247.639 192.379L248.548 191.962ZM246.445 191.065L246.086 190.132L242.048 191.686L242.407 192.619L242.766 193.552L246.804 191.999L246.445 191.065ZM242.407 192.619L242.048 191.686C240.726 192.194 240.015 193.709 240.613 195.065L241.528 194.661L242.443 194.257C242.332 194.006 242.449 193.675 242.766 193.552L242.407 192.619ZM241.528 194.661L240.613 195.065C243.315 201.185 247.41 205.221 252.458 206.466L252.697 205.495L252.937 204.524C248.679 203.474 244.985 200.016 242.443 194.257L241.528 194.661ZM252.697 205.495L252.458 206.466C257.916 207.812 263.081 205.538 266.447 201.763L265.7 201.098L264.954 200.432C261.977 203.771 257.535 205.658 252.937 204.524L252.697 205.495ZM265.7 201.098L266.447 201.763C273.468 193.887 273.25 179.914 260.143 168.934L259.501 169.7L258.859 170.467C271.297 180.887 271.064 193.578 264.954 200.432L265.7 201.098ZM259.501 169.7L260.143 168.934C252.975 162.929 245.059 161.231 237.877 163.161L238.137 164.127L238.396 165.093C244.876 163.351 252.132 164.831 258.859 170.467L259.501 169.7ZM238.137 164.127L237.877 163.161C230.856 165.049 225.173 170.231 221.852 176.772L222.744 177.225L223.636 177.677C226.743 171.557 232.009 166.81 238.396 165.093L238.137 164.127ZM222.744 177.225L221.852 176.772C216.861 186.604 217.042 199.627 225.377 211.098L226.186 210.51L226.995 209.922C219.103 199.062 218.983 186.843 223.636 177.677L222.744 177.225ZM226.186 210.51L225.377 211.098C225.54 211.323 225.555 211.61 225.437 211.86C225.321 212.103 225.116 212.239 224.871 212.239V213.239V214.239C227.134 214.239 228.228 211.619 226.995 209.922L226.186 210.51ZM224.871 213.239V212.239H129.078V213.239V214.239H224.871V213.239ZM129.078 213.239V212.239C128.833 212.239 128.628 212.103 128.512 211.859C128.393 211.61 128.408 211.322 128.572 211.097L127.763 210.51L126.954 209.922C125.721 211.62 126.816 214.239 129.078 214.239V213.239ZM127.763 210.51L128.572 211.098C136.907 199.627 137.089 186.605 132.098 176.772L131.206 177.225L130.314 177.677C134.967 186.843 134.845 199.062 126.954 209.922L127.763 210.51ZM131.206 177.225L132.098 176.772C128.777 170.231 123.094 165.049 116.072 163.161L115.812 164.127L115.553 165.093C121.941 166.81 127.207 171.557 130.314 177.677L131.206 177.225ZM115.812 164.127L116.072 163.161C108.89 161.231 100.974 162.929 93.8061 168.934L94.4482 169.7L95.0904 170.467C101.818 164.831 109.073 163.351 115.553 165.093L115.812 164.127ZM94.4482 169.7L93.8061 168.934C80.6992 179.914 80.4816 193.887 87.5026 201.763L88.249 201.098L88.9955 200.432C82.8856 193.578 82.6524 180.887 95.0904 170.467L94.4482 169.7ZM88.249 201.098L87.5026 201.763C90.8678 205.538 96.0331 207.812 101.491 206.466L101.252 205.495L101.013 204.524C96.4145 205.658 91.9719 203.771 88.9955 200.432L88.249 201.098ZM101.252 205.495L101.491 206.466C106.539 205.221 110.634 201.185 113.336 195.065L112.421 194.661L111.506 194.257C108.964 200.016 105.27 203.474 101.012 204.524L101.252 205.495ZM112.421 194.661L113.336 195.065C113.934 193.709 113.225 192.195 111.902 191.686L111.543 192.619L111.184 193.552C111.501 193.674 111.617 194.006 111.506 194.257L112.421 194.661ZM111.543 192.619L111.902 191.686L107.863 190.132L107.504 191.065L107.145 191.999L111.184 193.552L111.543 192.619ZM107.504 191.065L107.863 190.132C106.511 189.612 105.062 190.305 104.493 191.545L105.401 191.962L106.31 192.379C106.474 192.021 106.855 191.887 107.145 191.999L107.504 191.065ZM105.401 191.962L104.492 191.545C102.609 195.65 100.481 196.914 99.2165 197.226L99.4561 198.197L99.6956 199.168C101.721 198.668 104.255 196.858 106.31 192.379L105.401 191.962ZM99.4561 198.197L99.2166 197.226C97.8215 197.57 96.096 197.107 94.599 195.427L93.8525 196.093L93.1061 196.758C95.0034 198.886 97.4545 199.721 99.6955 199.168L99.4561 198.197ZM93.8525 196.093L94.599 195.427C93.2087 193.868 92.0948 191.141 92.5303 187.784C92.9637 184.443 94.947 180.388 99.9098 176.23L99.2676 175.464L98.6254 174.697C93.3679 179.102 91.0586 183.583 90.547 187.527C90.0375 191.454 91.3262 194.762 93.1061 196.758L93.8525 196.093ZM99.2676 175.464L99.9097 176.23C104.977 171.985 109.751 171.315 113.606 172.351L113.865 171.386L114.125 170.42C109.571 169.196 104.136 170.081 98.6254 174.697L99.2676 175.464ZM113.865 171.386L113.606 172.351C117.62 173.43 121.317 176.548 123.619 181.082L124.511 180.629L125.402 180.176C122.886 175.22 118.771 171.669 114.125 170.42L113.865 171.386ZM124.511 180.629L123.619 181.082C127.734 189.188 127.201 201.782 114.55 212.113L115.183 212.888L115.815 213.662C129.172 202.755 129.956 189.147 125.402 180.176L124.511 180.629ZM115.183 212.888L114.55 212.113C114.453 212.192 114.323 212.239 114.19 212.239L114.19 213.239L114.191 214.239C114.777 214.239 115.355 214.038 115.815 213.662L115.183 212.888ZM114.19 213.239V212.239H102.204V213.239V214.239H114.19V213.239ZM102.204 213.239L102.204 212.239C100.773 212.24 99.6133 213.401 99.6133 214.831H100.613H101.613C101.613 214.504 101.878 214.239 102.204 214.239L102.204 213.239ZM100.613 214.831H99.6133V241.09H100.613H101.613V214.831H100.613ZM100.613 241.09L99.6133 241.09C99.6135 242.521 100.773 243.68 102.204 243.681L102.204 242.681L102.204 241.681C101.878 241.681 101.613 241.416 101.613 241.09L100.613 241.09ZM102.204 242.681V243.681H116.102V242.681V241.681H102.204V242.681ZM116.102 242.681V243.681C116.428 243.681 116.693 243.946 116.693 244.272H117.693H118.693C118.693 242.841 117.533 241.681 116.102 241.681V242.681ZM117.693 244.272H116.693V313.637H117.693H118.693V244.272H117.693ZM117.693 313.637L118.094 312.721C66.2317 290.012 30.0001 238.236 30 178H29H28C28.0001 239.059 64.7281 291.537 117.292 314.553L117.693 313.637ZM29 178H30C30 96.8141 95.8141 31 177 31V30V29C94.7096 29 28 95.7096 28 178H29ZM101.309 137.104L101.308 136.104C99.8771 136.105 98.7178 137.266 98.7178 138.696H99.7178H100.718C100.718 138.369 100.983 138.105 101.309 138.104L101.309 137.104ZM99.7178 138.696H98.7178V160.976H99.7178H100.718V138.696H99.7178ZM99.7178 160.976L98.7178 160.976C98.718 162.407 99.8778 163.566 101.308 163.566L101.309 162.566L101.309 161.566C100.982 161.566 100.718 161.302 100.718 160.975L99.7178 160.976ZM101.309 162.566V163.566H253.287V162.566V161.566H101.309V162.566ZM253.287 162.566V163.566C254.718 163.566 255.879 162.407 255.879 160.976L254.879 160.976L253.879 160.975C253.879 161.301 253.614 161.566 253.287 161.566V162.566ZM254.879 160.976H255.879V138.696H254.879H253.879V160.976H254.879ZM254.879 138.696H255.879C255.879 137.265 254.718 136.104 253.287 136.104V137.104V138.104C253.614 138.104 253.879 138.37 253.879 138.696H254.879ZM253.287 137.104V136.104H101.309V137.104V138.104H253.287V137.104ZM85.4941 107.978L85.4938 106.978C84.0626 106.978 82.9033 108.139 82.9033 109.569H83.9033H84.9033C84.9033 109.242 85.1683 108.978 85.4944 108.978L85.4941 107.978ZM83.9033 109.569H82.9033V135.511H83.9033H84.9033V109.569H83.9033ZM83.9033 135.511L82.9033 135.511C82.9035 136.942 84.0633 138.101 85.4938 138.102L85.4941 137.102L85.4944 136.102C85.1677 136.101 84.9034 135.837 84.9033 135.511L83.9033 135.511ZM85.4941 137.102V138.102H268.154V137.102V136.102H85.4941V137.102ZM268.154 137.102V138.102C269.585 138.102 270.746 136.943 270.746 135.511L269.746 135.511L268.746 135.511C268.746 135.837 268.481 136.102 268.154 136.102V137.102ZM269.746 135.511H270.746V109.569H269.746H268.746V135.511H269.746ZM269.746 109.569H270.746C270.746 108.138 269.585 106.978 268.154 106.978V107.978V108.978C268.481 108.978 268.746 109.243 268.746 109.569H269.746ZM268.154 107.978V106.978H85.4941V107.978V108.978H268.154V107.978Z" fill="#58B09C" mask="url(#path-1-inside-1_295_11757)"/>
</svg>
