<svg width="355" height="355" viewBox="0 0 355 355" fill="none" xmlns="http://www.w3.org/2000/svg">
<path d="M253.814 99.2773L253.685 98.7945L253.685 98.7945L253.814 99.2773ZM280.664 106.282L280.985 105.899V105.899L280.664 106.282ZM288.455 145.741L288.828 146.074V146.074L288.455 145.741ZM272.113 151.268L271.994 151.753H271.994L272.113 151.268ZM274.371 142.096L274.251 142.581L274.251 142.581L274.371 142.096ZM281.413 139.451L281.786 139.784V139.784L281.413 139.451ZM274.607 113.525L274.929 113.142L274.607 113.525ZM256.263 108.4L256.133 107.918H256.133L256.263 108.4ZM242.883 120.017L242.437 119.79V119.79L242.883 120.017ZM111.015 120.017L111.46 119.79L111.46 119.79L111.015 120.017ZM97.6348 108.4L97.7645 107.918H97.7645L97.6348 108.4ZM79.29 113.525L78.969 113.142L79.29 113.525ZM72.4844 139.451L72.1112 139.784L72.1112 139.784L72.4844 139.451ZM79.5264 142.096L79.6461 142.581L79.6461 142.581L79.5264 142.096ZM81.7842 151.268L81.9039 151.753H81.9039L81.7842 151.268ZM65.4424 145.741L65.0692 146.074L65.0692 146.074L65.4424 145.741ZM73.2334 106.282L72.9123 105.899L72.9123 105.899L73.2334 106.282ZM100.083 99.2773L100.213 98.7945L100.213 98.7945L100.083 99.2773ZM119.429 115.738L119.875 115.512L119.875 115.512L119.429 115.738ZM234.469 115.738L234.023 115.512V115.512L234.469 115.738ZM238.796 157.569L238.392 157.863L238.796 157.569ZM115.101 157.569L114.697 157.275L115.101 157.569ZM95.8203 137.651L95.3629 137.449L95.8203 137.651ZM86.9989 134.26L86.5445 134.051L86.9989 134.26ZM89.6413 133.132L89.8208 132.666L89.6413 133.132ZM99.2914 160.557L98.9751 160.17L99.2914 160.557ZM254.606 160.557L254.29 160.945L254.606 160.557ZM264.257 133.132L264.078 132.666L264.257 133.132ZM266.899 134.26L267.354 134.051L266.899 134.26ZM258.077 137.651L258.535 137.449L258.077 137.651ZM259.181 135.084L259.361 135.551L259.181 135.084ZM253.814 99.2773L253.944 99.7602C262.354 97.5 271.722 99.4432 280.343 106.666L280.664 106.282L280.985 105.899C272.143 98.492 262.445 96.44 253.685 98.7945L253.814 99.2773ZM280.664 106.282L280.343 106.666C296.228 119.973 296.106 136.408 288.082 145.408L288.455 145.741L288.828 146.074C297.308 136.563 297.205 119.487 280.985 105.899L280.664 106.282ZM288.455 145.741L288.082 145.408C284.194 149.769 278.337 152.288 272.233 150.782L272.113 151.268L271.994 151.753C278.528 153.365 284.746 150.653 288.828 146.074L288.455 145.741ZM272.113 151.268L272.233 150.782C266.583 149.389 261.789 144.823 258.535 137.449L258.077 137.651L257.62 137.853C260.954 145.408 265.949 150.262 271.994 151.753L272.113 151.268ZM259.181 135.084L259.361 135.551L264.437 133.599L264.257 133.132L264.078 132.666L259.002 134.618L259.181 135.084ZM266.899 134.26L266.445 134.468C268.963 139.956 271.994 142.024 274.251 142.581L274.371 142.096L274.491 141.61C272.614 141.147 269.786 139.352 267.354 134.051L266.899 134.26ZM274.371 142.096L274.251 142.581C276.748 143.197 279.553 142.289 281.786 139.784L281.413 139.451L281.04 139.118C279.007 141.399 276.564 142.122 274.491 141.61L274.371 142.096ZM281.413 139.451L281.786 139.784C283.876 137.44 285.429 133.504 284.817 128.783C284.204 124.055 281.425 118.584 274.929 113.142L274.607 113.525L274.286 113.909C280.635 119.227 283.251 124.485 283.825 128.912C284.401 133.347 282.935 136.993 281.04 139.118L281.413 139.451ZM274.607 113.525L274.929 113.142C268.171 107.481 261.591 106.451 256.133 107.918L256.263 108.4L256.392 108.883C261.501 107.51 267.75 108.433 274.286 113.909L274.607 113.525ZM256.263 108.4L256.133 107.918C250.533 109.423 245.518 113.72 242.437 119.79L242.883 120.017L243.329 120.243C246.303 114.385 251.109 110.303 256.392 108.883L256.263 108.4ZM242.883 120.017L242.437 119.79C236.88 130.737 237.771 147.455 254.29 160.945L254.606 160.557L254.922 160.17C238.756 146.969 237.991 130.757 243.329 120.243L242.883 120.017ZM255.854 161V161.5H275.98V161V160.5H255.854V161ZM277.98 163H277.48V196H277.98H278.48V163H277.98ZM275.98 198V197.5H260.151V198V198.5H275.98V198ZM258.151 200H257.651V323.064H258.151H258.651V200H258.151ZM256.151 325.064V324.564H250.714V325.064V325.564H256.151V325.064ZM248.714 323.064H249.214V200H248.714H248.214V323.064H248.714ZM246.714 198V197.5H223.298V198V198.5H246.714V198ZM221.298 200H220.798V322.55H221.298H221.798V200H221.298ZM219.298 324.55V324.05H215.298V324.55V325.05H219.298V324.55ZM213.298 322.55H213.798V200H213.298H212.798V322.55H213.298ZM211.298 198V197.5H188.298V198V198.5H211.298V198ZM186.298 200H185.798V322.55H186.298H186.798V200H186.298ZM184.298 324.55V324.05H178.298V324.55V325.05H184.298V324.55ZM176.298 322.55H176.798V200H176.298H175.798V322.55H176.298ZM174.298 198V197.5H151.298V198V198.5H174.298V198ZM149.298 200H148.798V322.55H149.298H149.798V200H149.298ZM147.298 324.55V324.05H141.298V324.55V325.05H147.298V324.55ZM139.298 322.55H139.798V200H139.298H138.798V322.55H139.298ZM137.298 198V197.5H113.883V198V198.5H137.298V198ZM111.883 200H111.383V323.064H111.883H112.383V200H111.883ZM109.883 325.064V324.564H104.446V325.064V325.564H109.883V325.064ZM102.446 323.064H102.946V200H102.446H101.946V323.064H102.446ZM100.446 198V197.5H82.9805V198V198.5H100.446V198ZM80.9805 196H81.4805V163H80.9805H80.4805V196H80.9805ZM82.9805 161V161.5H98.0437V161V160.5H82.9805V161ZM99.2914 160.557L99.6076 160.945C116.127 147.455 117.017 130.737 111.46 119.79L111.015 120.017L110.569 120.243C115.906 130.757 115.141 146.969 98.9751 160.17L99.2914 160.557ZM111.015 120.017L111.46 119.79C108.379 113.72 103.364 109.423 97.7645 107.918L97.6348 108.4L97.505 108.883C102.789 110.303 107.595 114.384 110.569 120.243L111.015 120.017ZM97.6348 108.4L97.7645 107.918C92.3061 106.451 85.7268 107.481 78.969 113.142L79.29 113.525L79.6111 113.909C86.1475 108.433 92.396 107.51 97.505 108.883L97.6348 108.4ZM79.29 113.525L78.969 113.142C72.4728 118.584 69.6938 124.055 69.0804 128.783C68.468 133.504 70.0216 137.44 72.1112 139.784L72.4844 139.451L72.8576 139.118C70.9628 136.993 69.4967 133.347 70.072 128.912C70.6463 124.485 73.2623 119.227 79.6111 113.909L79.29 113.525ZM72.4844 139.451L72.1112 139.784C74.3441 142.289 77.1498 143.197 79.6461 142.581L79.5264 142.096L79.4066 141.61C77.3333 142.122 74.8904 141.399 72.8576 139.118L72.4844 139.451ZM79.5264 142.096L79.6461 142.581C81.9035 142.024 84.9353 139.956 87.4534 134.468L86.9989 134.26L86.5445 134.051C84.1123 139.352 81.284 141.147 79.4066 141.61L79.5264 142.096ZM89.6413 133.132L89.4618 133.599L94.537 135.551L94.7165 135.084L94.896 134.618L89.8208 132.666L89.6413 133.132ZM95.8203 137.651L95.3629 137.449C92.1082 144.823 87.314 149.389 81.6644 150.782L81.7842 151.268L81.9039 151.753C87.9489 150.262 92.9434 145.408 96.2778 137.853L95.8203 137.651ZM81.7842 151.268L81.6644 150.782C75.5602 152.288 69.7035 149.769 65.8156 145.408L65.4424 145.741L65.0692 146.074C69.1515 150.653 75.3695 153.365 81.9039 151.753L81.7842 151.268ZM65.4424 145.741L65.8156 145.408C57.7918 136.408 57.6695 119.973 73.5545 106.666L73.2334 106.282L72.9123 105.899C56.6929 119.487 56.5898 136.563 65.0692 146.074L65.4424 145.741ZM73.2334 106.282L73.5545 106.666C82.1759 99.4432 91.5437 97.5 99.9532 99.7602L100.083 99.2773L100.213 98.7945C91.4525 96.44 81.7541 98.492 72.9123 105.899L73.2334 106.282ZM100.083 99.2773L99.9532 99.7602C108.221 101.983 114.997 108.114 118.983 115.965L119.429 115.738L119.875 115.512C115.782 107.451 108.798 101.102 100.213 98.7945L100.083 99.2773ZM119.429 115.738L118.983 115.965C124.958 127.736 124.782 143.395 114.697 157.275L115.101 157.569L115.505 157.863C125.813 143.678 126.019 127.617 119.875 115.512L119.429 115.738ZM116.753 161V161.5H237.144V161V160.5H116.753V161ZM238.796 157.569L239.201 157.275C229.115 143.395 228.939 127.736 234.915 115.965L234.469 115.738L234.023 115.512C227.878 127.617 228.084 143.678 238.392 157.863L238.796 157.569ZM234.469 115.738L234.915 115.965C238.9 108.114 245.676 101.983 253.944 99.7602L253.814 99.2773L253.685 98.7945C245.1 101.102 238.115 107.451 234.023 115.512L234.469 115.738ZM272.855 97.3164V96.8164H81.8555V97.3164V97.8164H272.855V97.3164ZM79.8555 95.3164H80.3555V67.3164H79.8555H79.3555V95.3164H79.8555ZM81.8555 65.3164V65.8164H272.855V65.3164V64.8164H81.8555V65.3164ZM274.855 67.3164H274.355V95.3164H274.855H275.355V67.3164H274.855ZM291.539 65.3125V64.8125H61.9805V65.3125V65.8125H291.539V65.3125ZM59.9805 63.3125H60.4805V30.7109H59.9805H59.4805V63.3125H59.9805ZM61.9805 28.7109V29.2109H291.539V28.7109V28.2109H61.9805V28.7109ZM293.539 30.7109H293.039V63.3125H293.539H294.039V30.7109H293.539ZM61.9805 65.3125V64.8125C61.152 64.8125 60.4805 64.1409 60.4805 63.3125H59.9805H59.4805C59.4805 64.6932 60.5998 65.8125 61.9805 65.8125V65.3125ZM291.539 65.3125V65.8125C292.92 65.8125 294.039 64.6932 294.039 63.3125H293.539H293.039C293.039 64.1409 292.367 64.8125 291.539 64.8125V65.3125ZM272.855 65.3164V65.8164C273.684 65.8164 274.355 66.488 274.355 67.3164H274.855H275.355C275.355 65.9357 274.236 64.8164 272.855 64.8164V65.3164ZM79.8555 67.3164H80.3555C80.3555 66.488 81.027 65.8164 81.8555 65.8164V65.3164V64.8164C80.4748 64.8164 79.3555 65.9357 79.3555 67.3164H79.8555ZM81.8555 97.3164V96.8164C81.027 96.8164 80.3555 96.1448 80.3555 95.3164H79.8555H79.3555C79.3555 96.6971 80.4748 97.8164 81.8555 97.8164V97.3164ZM237.144 161V161.5C239.308 161.5 240.424 158.958 239.201 157.275L238.796 157.569L238.392 157.863C239.184 158.953 238.409 160.5 237.144 160.5V161ZM115.101 157.569L114.697 157.275C113.473 158.958 114.59 161.5 116.753 161.5V161V160.5C115.489 160.5 114.714 158.953 115.505 157.863L115.101 157.569ZM94.7165 135.084L94.537 135.551C95.3161 135.851 95.6869 136.715 95.3629 137.449L95.8203 137.651L96.2778 137.853C96.8454 136.567 96.1779 135.111 94.896 134.618L94.7165 135.084ZM86.9989 134.26L87.4534 134.468C87.813 133.685 88.6962 133.305 89.4618 133.599L89.6413 133.132L89.8208 132.666C88.5236 132.167 87.1065 132.827 86.5445 134.051L86.9989 134.26ZM98.0437 161V161.5C98.6097 161.5 99.1668 161.305 99.6076 160.945L99.2914 160.557L98.9751 160.17C98.7153 160.382 98.3823 160.5 98.0437 160.5V161ZM80.9805 163H81.4805C81.4805 162.172 82.152 161.5 82.9805 161.5V161V160.5C81.5998 160.5 80.4805 161.619 80.4805 163H80.9805ZM82.9805 198V197.5C82.152 197.5 81.4805 196.828 81.4805 196H80.9805H80.4805C80.4805 197.381 81.5998 198.5 82.9805 198.5V198ZM102.446 200H102.946C102.946 198.619 101.827 197.5 100.446 197.5V198V198.5C101.275 198.5 101.946 199.172 101.946 200H102.446ZM104.446 325.064V324.564C103.618 324.564 102.946 323.893 102.946 323.064H102.446H101.946C101.946 324.445 103.066 325.564 104.446 325.564V325.064ZM111.883 323.064H111.383C111.383 323.893 110.711 324.564 109.883 324.564V325.064V325.564C111.264 325.564 112.383 324.445 112.383 323.064H111.883ZM113.883 198V197.5C112.502 197.5 111.383 198.619 111.383 200H111.883H112.383C112.383 199.172 113.054 198.5 113.883 198.5V198ZM139.298 200H139.798C139.798 198.619 138.679 197.5 137.298 197.5V198V198.5C138.126 198.5 138.798 199.172 138.798 200H139.298ZM151.298 198V197.5C149.917 197.5 148.798 198.619 148.798 200H149.298H149.798C149.798 199.172 150.469 198.5 151.298 198.5V198ZM176.298 200H176.798C176.798 198.619 175.679 197.5 174.298 197.5V198V198.5C175.126 198.5 175.798 199.172 175.798 200H176.298ZM178.298 324.55V324.05C177.469 324.05 176.798 323.378 176.798 322.55H176.298H175.798C175.798 323.931 176.917 325.05 178.298 325.05V324.55ZM186.298 322.55H185.798C185.798 323.378 185.126 324.05 184.298 324.05V324.55V325.05C185.679 325.05 186.798 323.931 186.798 322.55H186.298ZM188.298 198V197.5C186.917 197.5 185.798 198.619 185.798 200H186.298H186.798C186.798 199.172 187.469 198.5 188.298 198.5V198ZM213.298 200H213.798C213.798 198.619 212.679 197.5 211.298 197.5V198V198.5C212.126 198.5 212.798 199.172 212.798 200H213.298ZM215.298 324.55V324.05C214.469 324.05 213.798 323.378 213.798 322.55H213.298H212.798C212.798 323.931 213.917 325.05 215.298 325.05V324.55ZM221.298 322.55H220.798C220.798 323.378 220.126 324.05 219.298 324.05V324.55V325.05C220.679 325.05 221.798 323.931 221.798 322.55H221.298ZM223.298 198V197.5C221.917 197.5 220.798 198.619 220.798 200H221.298H221.798C221.798 199.172 222.469 198.5 223.298 198.5V198ZM248.714 200H249.214C249.214 198.619 248.095 197.5 246.714 197.5V198V198.5C247.542 198.5 248.214 199.172 248.214 200H248.714ZM260.151 198V197.5C258.771 197.5 257.651 198.619 257.651 200H258.151H258.651C258.651 199.172 259.323 198.5 260.151 198.5V198ZM277.98 196H277.48C277.48 196.828 276.809 197.5 275.98 197.5V198V198.5C277.361 198.5 278.48 197.381 278.48 196H277.98ZM291.539 28.7109V29.2109C292.367 29.2109 293.039 29.8825 293.039 30.7109H293.539H294.039C294.039 29.3302 292.92 28.2109 291.539 28.2109V28.7109ZM275.98 161V161.5C276.809 161.5 277.48 162.172 277.48 163H277.98H278.48C278.48 161.619 277.361 160.5 275.98 160.5V161ZM59.9805 30.7109H60.4805C60.4805 29.8825 61.152 29.2109 61.9805 29.2109V28.7109V28.2109C60.5998 28.2109 59.4805 29.3302 59.4805 30.7109H59.9805ZM254.606 160.557L254.29 160.945C254.731 161.305 255.288 161.5 255.854 161.5V161V160.5C255.515 160.5 255.182 160.382 254.922 160.17L254.606 160.557ZM250.714 325.064V324.564C249.885 324.564 249.214 323.893 249.214 323.064H248.714H248.214C248.214 324.445 249.333 325.564 250.714 325.564V325.064ZM141.298 324.55V324.05C140.469 324.05 139.798 323.378 139.798 322.55H139.298H138.798C138.798 323.931 139.917 325.05 141.298 325.05V324.55ZM272.855 97.3164V97.8164C274.236 97.8164 275.355 96.6971 275.355 95.3164H274.855H274.355C274.355 96.1448 273.684 96.8164 272.855 96.8164V97.3164ZM264.257 133.132L264.437 133.599C265.202 133.305 266.085 133.684 266.445 134.468L266.899 134.26L267.354 134.051C266.792 132.826 265.375 132.167 264.078 132.666L264.257 133.132ZM258.151 323.064H257.651C257.651 323.893 256.98 324.564 256.151 324.564V325.064V325.564C257.532 325.564 258.651 324.445 258.651 323.064H258.151ZM149.298 322.55H148.798C148.798 323.378 148.126 324.05 147.298 324.05V324.55V325.05C148.679 325.05 149.798 323.931 149.798 322.55H149.298ZM258.077 137.651L258.535 137.449C258.211 136.715 258.581 135.851 259.361 135.551L259.181 135.084L259.002 134.618C257.72 135.111 257.052 136.567 257.62 137.853L258.077 137.651Z" fill="#58B09C"/>
</svg>
