<svg width="33" height="36" viewBox="0 0 33 36" fill="none" xmlns="http://www.w3.org/2000/svg">
<path fill-rule="evenodd" clip-rule="evenodd" d="M31.803 9.184L31.5519 8.73556C31.228 8.19324 30.7712 7.74252 30.2246 7.42612L18.1885 0.484313C17.6435 0.168175 17.0249 0.0011375 16.3948 0H15.8746C15.2445 0.0011375 14.6259 0.168175 14.0808 0.484313L2.04487 7.44406C1.50132 7.75836 1.0498 8.20995 0.735437 8.7535L0.484313 9.20194C0.168158 9.74689 0.00112 10.3656 0 10.9956V24.8972C0.00112 25.5273 0.168158 26.1459 0.484313 26.6909L0.735437 27.1393C1.05793 27.6766 1.50762 28.1263 2.04487 28.4488L14.0988 35.3905C14.6411 35.7132 15.2616 35.8808 15.8925 35.8748H16.3948C17.0249 35.8737 17.6435 35.7066 18.1885 35.3905L30.2246 28.4309C30.7735 28.1236 31.2267 27.6704 31.5339 27.1214L31.803 26.673C32.1154 26.1264 32.2822 25.5087 32.2873 24.8792V10.9777C32.2863 10.3477 32.1192 9.72895 31.803 9.184ZM15.8746 3.58741H16.3948L26.9062 9.65029L16.1437 15.8566L5.38125 9.65029L15.8746 3.58741ZM17.9374 31.3906L28.4308 25.3277L28.6998 24.8793V12.7536L17.9374 18.9779V31.3906Z" fill="black"/>
</svg>
