<svg width="18" height="18" viewBox="0 0 18 18" fill="none" xmlns="http://www.w3.org/2000/svg">
<g clip-path="url(#clip0_258_9164)">
<path fill-rule="evenodd" clip-rule="evenodd" d="M8.7024 0.0790065C8.79304 0.0272322 8.89562 0 9 0C9.10438 0 9.20696 0.0272322 9.2976 0.0790065L17.6976 4.87901C17.7894 4.93146 17.8658 5.00726 17.9189 5.09872C17.972 5.19018 18 5.29405 18 5.39981V6.26381C18 8.91097 17.1377 11.4861 15.5434 13.5993C13.9491 15.7126 11.7098 17.2489 9.1644 17.9758C9.05694 18.0064 8.94306 18.0064 8.8356 17.9758C6.29018 17.2489 4.05085 15.7126 2.4566 13.5993C0.862349 11.4861 -3.29873e-05 8.91097 9.46374e-10 6.26381L9.46373e-10 5.39981C3.41134e-05 5.29405 0.0280215 5.19018 0.0811266 5.09872C0.134232 5.00726 0.210568 4.93146 0.3024 4.87901L8.7024 0.0790065ZM8.4864 12.853L13.668 6.37421L12.732 5.62541L8.3136 11.1466L5.184 8.53901L4.416 9.46061L8.4864 12.853Z" fill="#F99F0E"/>
</g>
<defs>
<clipPath id="clip0_258_9164">
<rect width="18" height="18" fill="white"/>
</clipPath>
</defs>
</svg>
